<svg width="25" height="25" viewBox="0 0 25 25" fill="none" xmlns="http://www.w3.org/2000/svg">
<path d="M8.75 3.75C8.41848 3.75 8.10054 3.8817 7.86612 4.11612C7.6317 4.35054 7.5 4.66848 7.5 5C7.5 5.33152 7.6317 5.64946 7.86612 5.88388C8.10054 6.1183 8.41848 6.25 8.75 6.25H16.25C16.5815 6.25 16.8995 6.1183 17.1339 5.88388C17.3683 5.64946 17.5 5.33152 17.5 5C17.5 4.66848 17.3683 4.35054 17.1339 4.11612C16.8995 3.8817 16.5815 3.75 16.25 3.75H8.75ZM5 8.75C5 8.41848 5.1317 8.10054 5.36612 7.86612C5.60054 7.6317 5.91848 7.5 6.25 7.5H18.75C19.0815 7.5 19.3995 7.6317 19.6339 7.86612C19.8683 8.10054 20 8.41848 20 8.75C20 9.08152 19.8683 9.39946 19.6339 9.63388C19.3995 9.8683 19.0815 10 18.75 10H6.25C5.91848 10 5.60054 9.8683 5.36612 9.63388C5.1317 9.39946 5 9.08152 5 8.75ZM2.5 13.75C2.5 13.087 2.76339 12.4511 3.23223 11.9822C3.70107 11.5134 4.33696 11.25 5 11.25H20C20.663 11.25 21.2989 11.5134 21.7678 11.9822C22.2366 12.4511 22.5 13.087 22.5 13.75V18.75C22.5 19.413 22.2366 20.0489 21.7678 20.5178C21.2989 20.9866 20.663 21.25 20 21.25H5C4.33696 21.25 3.70107 20.9866 3.23223 20.5178C2.76339 20.0489 2.5 19.413 2.5 18.75V13.75Z" fill="black"/>
</svg>
