<svg width="30" height="30" viewBox="0 0 30 30" fill="none" xmlns="http://www.w3.org/2000/svg">
<g clip-path="url(#clip0_24_905)">
<path d="M28.2252 6.93332L23.3335 2.01665C23.0103 1.69504 22.5728 1.5145 22.1168 1.5145C21.6609 1.5145 21.2234 1.69504 20.9002 2.01665L3.5585 19.3333L1.97517 26.1667C1.92055 26.4164 1.92242 26.6753 1.98065 26.9243C2.03888 27.1732 2.15199 27.4061 2.31172 27.6057C2.47146 27.8054 2.67377 27.9669 2.9039 28.0783C3.13402 28.1898 3.38614 28.2484 3.64184 28.25C3.76098 28.262 3.88103 28.262 4.00017 28.25L10.9085 26.6667L28.2252 9.36665C28.5468 9.04341 28.7273 8.60597 28.7273 8.14998C28.7273 7.694 28.5468 7.25656 28.2252 6.93332ZM10.0752 25.1667L3.60017 26.525L5.07517 20.175L18.0502 7.24998L23.0502 12.25L10.0752 25.1667ZM24.1668 11.0417L19.1668 6.04165L22.0668 3.15832L26.9835 8.15832L24.1668 11.0417Z" fill="black"/>
</g>
<defs>
<clipPath id="clip0_24_905">
<rect width="30" height="30" fill="white"/>
</clipPath>
</defs>
</svg>
