<svg width="24" height="24" viewBox="0 0 24 24" fill="none" xmlns="http://www.w3.org/2000/svg">
<path d="M20.25 3.75H6.75C6.35218 3.75 5.97064 3.90804 5.68934 4.18934C5.40804 4.47064 5.25 4.85218 5.25 5.25V6.75H3.75C3.35218 6.75 2.97064 6.90804 2.68934 7.18934C2.40804 7.47064 2.25 7.85218 2.25 8.25V18.75C2.25 19.1478 2.40804 19.5294 2.68934 19.8107C2.97064 20.092 3.35218 20.25 3.75 20.25H17.25C17.6478 20.25 18.0294 20.092 18.3107 19.8107C18.592 19.5294 18.75 19.1478 18.75 18.75V17.25H20.25C20.6478 17.25 21.0294 17.092 21.3107 16.8107C21.592 16.5294 21.75 16.1478 21.75 15.75V5.25C21.75 4.85218 21.592 4.47064 21.3107 4.18934C21.0294 3.90804 20.6478 3.75 20.25 3.75ZM16.125 6.75C16.3475 6.75 16.565 6.81598 16.75 6.9396C16.935 7.06321 17.0792 7.23891 17.1644 7.44448C17.2495 7.65005 17.2718 7.87625 17.2284 8.09448C17.185 8.31271 17.0778 8.51316 16.9205 8.6705C16.7632 8.82783 16.5627 8.93498 16.3445 8.97838C16.1262 9.02179 15.9 8.99951 15.6945 8.91436C15.4889 8.82922 15.3132 8.68502 15.1896 8.50002C15.066 8.31501 15 8.0975 15 7.875C15 7.57663 15.1185 7.29048 15.3295 7.0795C15.5405 6.86853 15.8266 6.75 16.125 6.75ZM17.25 18.75H3.75V8.25H5.25V15.75C5.25 16.1478 5.40804 16.5294 5.68934 16.8107C5.97064 17.092 6.35218 17.25 6.75 17.25H17.25V18.75ZM20.25 15.75H6.75V11.3147L9.59437 8.46937C9.66403 8.39964 9.74675 8.34432 9.83779 8.30658C9.92884 8.26884 10.0264 8.24941 10.125 8.24941C10.2236 8.24941 10.3212 8.26884 10.4122 8.30658C10.5033 8.34432 10.586 8.39964 10.6556 8.46937L15.3103 13.125L17.7188 10.7194C17.8594 10.5788 18.0501 10.4999 18.2489 10.4999C18.4477 10.4999 18.6384 10.5788 18.7791 10.7194L20.25 12.1941V15.75Z" fill="black"/>
</svg>
