<svg width="20" height="20" viewBox="0 0 20 20" fill="none" xmlns="http://www.w3.org/2000/svg">
<path d="M8.17148 6.58438C7.77532 6.58438 7.39538 6.74176 7.11524 7.02189C6.83511 7.30202 6.67773 7.68196 6.67773 8.07813C6.67773 8.4743 6.83511 8.85424 7.11524 9.13437C7.39538 9.4145 7.77532 9.57188 8.17148 9.57188C8.56765 9.57188 8.94759 9.4145 9.22772 9.13437C9.50786 8.85424 9.66523 8.4743 9.66523 8.07813C9.66523 7.68196 9.50786 7.30202 9.22772 7.02189C8.94759 6.74176 8.56765 6.58438 8.17148 6.58438ZM7.30273 8.07813C7.30273 7.84772 7.39426 7.62675 7.55718 7.46383C7.72011 7.30091 7.94108 7.20938 8.17148 7.20938C8.40189 7.20938 8.62286 7.30091 8.78578 7.46383C8.94871 7.62675 9.04023 7.84772 9.04023 8.07813C9.04023 8.30854 8.94871 8.52951 8.78578 8.69243C8.62286 8.85535 8.40189 8.94688 8.17148 8.94688C7.94108 8.94688 7.72011 8.85535 7.55718 8.69243C7.39426 8.52951 7.30273 8.30854 7.30273 8.07813Z" fill="black"/>
<path d="M13.6779 2.42063L13.2354 1.35875C13.1778 1.21609 13.0751 1.09622 12.9429 1.0175C12.8707 0.973528 12.7893 0.947013 12.7051 0.940068C12.6209 0.933124 12.5363 0.945942 12.4579 0.977502C11.9204 1.1975 11.5998 1.72375 11.4204 2.31438C11.1806 2.16225 10.9275 2.03234 10.6641 1.92625C10.4925 1.85738 10.3007 1.85876 10.1301 1.93009C9.9595 2.00142 9.82378 2.13698 9.75226 2.3075L9.75163 2.30875C9.64615 2.56433 9.56333 2.82868 9.50413 3.09875C8.96601 2.815 8.37601 2.675 7.84601 2.89563C7.76808 2.92875 7.6988 2.97934 7.64353 3.0435C7.58826 3.10765 7.54848 3.18365 7.52726 3.26563C7.48663 3.4125 7.49913 3.5725 7.55601 3.7175L8.14788 5.14563C8.06725 5.24532 7.99904 5.35446 7.94476 5.47063C7.91851 5.52688 7.89476 5.58 7.87413 5.62813C7.84976 5.59938 7.82413 5.56875 7.79538 5.53625C7.65308 5.37171 7.47804 5.23864 7.28144 5.14551C7.08485 5.05239 6.871 5.00125 6.65354 4.99537C6.43608 4.98949 6.21978 5.029 6.01844 5.11136C5.81709 5.19373 5.63512 5.31715 5.48413 5.47375L5.48288 5.475C5.33476 5.6302 5.22 5.81409 5.14568 6.01535C5.07136 6.2166 5.03906 6.43095 5.05077 6.64517C5.06249 6.85939 5.11796 7.06894 5.21378 7.26089C5.30959 7.45284 5.44372 7.62313 5.60788 7.76125L5.73413 7.865C5.68226 7.89 5.62476 7.9175 5.56226 7.94938C5.48675 7.98745 5.41443 8.03155 5.34601 8.08125L3.72288 7.40813L3.71726 7.40625C3.57361 7.3484 3.4151 7.33853 3.26538 7.37813C3.18341 7.39935 3.10741 7.43913 3.04325 7.4944C2.9791 7.54967 2.92851 7.61894 2.89538 7.69688C2.67351 8.22938 2.81601 8.82375 3.10351 9.365C2.81913 9.435 2.54288 9.525 2.38913 9.575L2.33288 9.59375C2.18038 9.64188 2.00788 9.74188 1.91351 9.925C1.81101 10.1225 1.83601 10.3413 1.93726 10.5394L1.99601 10.6556C2.08038 10.8244 2.19413 11.0494 2.32413 11.2681C1.72976 11.4463 1.19913 11.7669 0.977258 12.3081C0.945698 12.3865 0.932879 12.4712 0.939824 12.5554C0.946769 12.6396 0.973284 12.721 1.01726 12.7931C1.09226 12.9225 1.21476 13.0269 1.35851 13.0856L2.55913 13.5856L2.52163 13.6219L1.69663 14.4406C1.65288 14.4844 1.65913 14.5469 1.70288 14.5906C2.48913 15.2969 3.70413 15.2969 4.47601 14.5669C4.42601 14.7219 4.39913 14.8856 4.39663 15.0531V16.2156C4.39663 16.2719 4.44663 16.3219 4.50288 16.3156C5.57788 16.2594 6.44663 15.3719 6.44663 14.2781L6.43413 14.2388L13.5429 15.5244C13.7656 15.5648 13.9732 15.6649 14.1435 15.814C14.3138 15.9632 14.4404 16.1558 14.5098 16.3713L15.1598 18.3844C15.2348 18.7531 15.6973 18.8469 15.9973 18.5469L18.5723 15.9719C18.8723 15.6719 18.7785 15.2094 18.4098 15.1344L16.3454 14.5144C16.1301 14.4497 15.9363 14.3282 15.7843 14.1627C15.6323 13.9972 15.5277 13.7937 15.4816 13.5738L14.0441 6.71313C14.071 6.66938 14.0973 6.62438 14.1216 6.57813C15.2066 6.56813 16.0841 5.70313 16.1404 4.63438C16.1466 4.57813 16.0966 4.52813 16.0404 4.52813H14.8779C14.7167 4.53038 14.5568 4.55585 14.4029 4.60375L14.4016 4.59688C15.1216 3.825 15.1191 2.6175 14.4154 1.83438C14.3961 1.81397 14.3697 1.8019 14.3417 1.80073C14.3136 1.79956 14.2863 1.80939 14.2654 1.82813L13.6779 2.42063ZM8.13663 3.48688C8.13287 3.47702 8.13036 3.46673 8.12913 3.45625C8.45413 3.345 8.90163 3.44563 9.43101 3.7775C9.96913 4.115 10.5179 4.64875 10.9604 5.23C11.101 5.41375 11.3466 5.54875 11.6023 5.44375C11.8585 5.33875 11.9379 5.07 11.9066 4.84188C11.8066 4.11625 11.8166 3.34813 11.9585 2.725C12.0973 2.1175 12.341 1.72938 12.6473 1.57688C12.6512 1.58277 12.6546 1.58905 12.6573 1.59563L13.4385 3.47188L13.4391 3.4725C13.6435 3.97188 13.8329 4.72688 13.8279 5.16188V5.1675C13.8335 6.24063 13.2591 6.93688 12.3716 7.30813C12.1629 7.39313 11.9535 7.45188 11.7466 7.4825C11.4972 7.2432 11.1758 7.09274 10.8323 7.05438C10.7665 7.04826 10.7007 7.04347 10.6348 7.04L10.6554 7.01C10.7756 6.83206 10.858 6.63134 10.8976 6.42026C10.9371 6.20918 10.9329 5.99223 10.8852 5.78284C10.8375 5.57346 10.7474 5.37608 10.6203 5.20294C10.4933 5.0298 10.3321 4.88457 10.1466 4.77625C9.92118 4.6453 9.66649 4.57297 9.40587 4.56587C9.14524 4.55878 8.887 4.61714 8.65476 4.73563L8.13663 3.48688ZM7.28038 10.7344C7.30851 10.97 7.38726 11.1856 7.50413 11.3725C7.48714 11.6645 7.42078 11.9515 7.30788 12.2213C6.93663 13.1088 6.24038 13.6838 5.16726 13.6781H5.16101C4.72663 13.6838 3.97163 13.4938 3.47226 13.2894H3.47163L1.59788 12.5081H1.59601C1.58941 12.5052 1.58313 12.5017 1.57726 12.4975C1.72913 12.1913 2.11726 11.9475 2.72476 11.8088C3.34726 11.6669 4.11538 11.6575 4.84101 11.7563C5.08351 11.7906 5.33288 11.6863 5.43038 11.445C5.52663 11.2063 5.42288 10.9588 5.23038 10.8113C4.64913 10.3688 4.11476 9.81938 3.77726 9.28125C3.44538 8.75188 3.34476 8.30375 3.45601 7.97938C3.46662 7.98097 3.47708 7.98348 3.48726 7.98688L4.90726 8.57625C4.63851 9.0575 4.63226 9.67 4.95101 10.1763C5.06528 10.358 5.21602 10.514 5.39369 10.6345C5.57136 10.755 5.7721 10.8373 5.98321 10.8763C6.19433 10.9152 6.41123 10.91 6.6202 10.8608C6.82917 10.8116 7.02566 10.7196 7.19726 10.5906L7.25976 10.5431C7.26601 10.6013 7.27226 10.6656 7.28038 10.7344ZM10.0716 3.45938C10.1216 3.14938 10.2073 2.84375 10.3291 2.54875C10.337 2.53005 10.3518 2.5151 10.3704 2.50696C10.389 2.49882 10.41 2.49812 10.4291 2.505L10.4304 2.50563C10.7329 2.6275 11.0173 2.78438 11.2779 2.97125C11.2029 3.48563 11.1979 4.04625 11.2485 4.58813C10.9019 4.16701 10.5068 3.78815 10.0716 3.45938ZM2.97413 11.1281C2.81788 10.8981 2.67663 10.6163 2.56038 10.3863L2.49351 10.255C2.4859 10.2407 2.47983 10.2256 2.47538 10.21C2.49042 10.2007 2.5066 10.1933 2.52351 10.1881L2.57976 10.1694C2.78788 10.1025 3.15226 9.98438 3.46101 9.925C3.78941 10.359 4.16763 10.7529 4.58788 11.0988C4.05065 11.0462 3.50915 11.0565 2.97413 11.1281ZM9.83413 5.31688C10.301 5.58813 10.4429 6.20813 10.1379 6.65875L10.0779 6.74625C10.0016 6.85875 9.93663 6.955 9.89663 7.02625C9.86034 7.08642 9.83534 7.15272 9.82288 7.22188C9.8121 7.28791 9.82022 7.35565 9.84633 7.41725C9.87243 7.47886 9.91544 7.53182 9.97038 7.57C10.0358 7.61334 10.111 7.63956 10.1891 7.64625C10.2391 7.6525 10.2966 7.65375 10.3485 7.655L10.3841 7.65563C10.4885 7.65813 10.6148 7.66125 10.7735 7.67625C11.2691 7.72313 11.716 8.245 11.6204 8.77188V8.77375C11.5971 8.90032 11.5482 9.02079 11.4766 9.12773C11.405 9.23468 11.3123 9.32583 11.2042 9.39557C11.096 9.46531 10.9747 9.51216 10.8478 9.53324C10.7208 9.55432 10.5909 9.54917 10.466 9.51813C10.3523 9.49 10.2691 9.46563 10.1973 9.445C10.1659 9.43583 10.1344 9.42687 10.1029 9.41813C10.0558 9.40448 10.0078 9.39466 9.95913 9.38875H9.95726C9.89813 9.38131 9.83809 9.38892 9.78269 9.41088C9.72729 9.43284 9.67834 9.46844 9.64038 9.51438C9.59568 9.57084 9.56988 9.63993 9.56663 9.71188C9.56514 9.74882 9.56851 9.7858 9.57663 9.82188C9.58663 9.86813 9.60413 9.9175 9.61726 9.95313L9.63288 9.99625C9.65976 10.07 9.69288 10.1594 9.72851 10.2794C9.88226 10.7975 9.55976 11.3419 9.02976 11.46C8.9025 11.4879 8.77083 11.4888 8.64317 11.4628C8.51552 11.4369 8.39469 11.3845 8.28844 11.3091C8.18218 11.2338 8.09284 11.1371 8.02612 11.0252C7.95941 10.9133 7.91679 10.7887 7.90101 10.6594C7.88767 10.5471 7.87705 10.4346 7.86913 10.3219L7.86038 10.2169C7.85636 10.1602 7.84885 10.1039 7.83788 10.0481C7.82144 9.96077 7.77869 9.88052 7.71538 9.81813C7.66909 9.77538 7.61255 9.74533 7.55122 9.73088C7.4899 9.71642 7.42589 9.71806 7.36538 9.73563C7.30084 9.75533 7.2397 9.78484 7.18413 9.82313C7.0957 9.8835 7.0092 9.94666 6.92476 10.0125L6.82101 10.0906C6.71848 10.1676 6.60108 10.2225 6.47624 10.2518C6.3514 10.2811 6.22184 10.2842 6.09576 10.2608C5.96967 10.2374 5.84982 10.1881 5.74379 10.116C5.63775 10.0439 5.54784 9.95054 5.47976 9.84188C5.40969 9.73201 5.36339 9.60871 5.34381 9.47988C5.32423 9.35106 5.33181 9.21956 5.36606 9.09384C5.40032 8.96812 5.46049 8.85096 5.54271 8.74987C5.62494 8.64878 5.7274 8.56601 5.84351 8.50688C5.95726 8.44938 6.04038 8.41125 6.11351 8.3775C6.15663 8.3575 6.19663 8.33938 6.23726 8.31938C6.28288 8.29688 6.33913 8.26875 6.38726 8.23375C6.4715 8.17624 6.53036 8.08851 6.55163 7.98875C6.56098 7.93485 6.55867 7.87958 6.54487 7.82665C6.53108 7.77372 6.5061 7.72435 6.47163 7.68188C6.43439 7.63582 6.3925 7.59372 6.34663 7.55625C6.30608 7.52232 6.26503 7.48898 6.22351 7.45625L6.20038 7.4375C6.14538 7.39375 6.08226 7.3425 6.01038 7.2825C5.9116 7.19933 5.8309 7.0968 5.77325 6.98124C5.71561 6.86568 5.68225 6.73954 5.67522 6.6106C5.66819 6.48165 5.68765 6.35263 5.7324 6.2315C5.77714 6.11036 5.84622 5.99967 5.93538 5.90625C6.02612 5.81238 6.13542 5.73842 6.2563 5.68909C6.37719 5.63976 6.50702 5.61614 6.63753 5.61972C6.76804 5.62331 6.89638 5.65403 7.01437 5.70992C7.13237 5.76582 7.23743 5.84566 7.32288 5.94438C7.38288 6.01438 7.43351 6.07563 7.47788 6.12813L7.48913 6.1425C7.52726 6.18875 7.56413 6.2325 7.59538 6.2675C7.62663 6.30375 7.67163 6.3525 7.72476 6.39C7.77663 6.42688 7.89851 6.49625 8.05163 6.44813C8.14427 6.41729 8.22249 6.35374 8.27163 6.26938C8.31299 6.19247 8.34972 6.11316 8.38163 6.03188C8.41538 5.95063 8.45476 5.85563 8.51101 5.735C8.56575 5.6164 8.64464 5.51054 8.74263 5.42417C8.84062 5.3378 8.95556 5.27283 9.08009 5.23342C9.20462 5.19401 9.33601 5.18102 9.46585 5.19528C9.59569 5.20954 9.72112 5.25074 9.83413 5.31625" fill="black"/>
</svg>
