<svg width="35" height="35" viewBox="0 0 35 35" fill="none" xmlns="http://www.w3.org/2000/svg">
<rect width="35" height="35" fill="#F8FAFD"/>
<path fill-rule="evenodd" clip-rule="evenodd" d="M20.8235 3.13835C20.2839 2.91669 19.5985 2.91669 18.2291 2.91669C16.8598 2.91669 16.1758 2.91669 15.6348 3.13835C14.9165 3.43324 14.3447 4.00134 14.0452 4.71773C13.9081 5.04294 13.8556 5.42356 13.8337 5.97627C13.824 6.37673 13.7123 6.7681 13.5092 7.11336C13.306 7.45862 13.0182 7.74637 12.6729 7.9494C12.3211 8.14496 11.9256 8.24857 11.523 8.2506C11.1205 8.25264 10.724 8.15305 10.3702 7.96106C9.87726 7.70148 9.51997 7.55856 9.16706 7.5119C8.39495 7.41052 7.61404 7.61806 6.99414 8.08939C6.53039 8.44231 6.18768 9.03148 5.50372 10.2084C4.81831 11.3852 4.47706 11.9729 4.39976 12.549C4.29768 13.3161 4.50768 14.0919 4.9831 14.7059C5.19893 14.9859 5.50372 15.2206 5.97476 15.5152C6.67039 15.9484 7.11664 16.6863 7.11664 17.5C7.11664 18.3138 6.67039 19.0517 5.97622 19.4834C5.50372 19.7794 5.19893 20.0142 4.98164 20.2942C4.74697 20.5974 4.57472 20.9442 4.47484 21.3144C4.37497 21.6846 4.34945 22.0709 4.39976 22.4511C4.47706 23.0256 4.81831 23.6148 5.50372 24.7917C6.18914 25.9686 6.53039 26.5563 6.99414 26.9106C7.61247 27.3817 8.39414 27.5888 9.16706 27.4881C9.51997 27.4415 9.87726 27.2986 10.3702 27.039C10.7242 26.8467 11.121 26.747 11.5238 26.749C11.9266 26.7511 12.3223 26.8548 12.6743 27.0506C13.3831 27.459 13.8031 28.21 13.8337 29.0238C13.8556 29.5779 13.9081 29.9571 14.0452 30.2823C14.3427 30.9969 14.9143 31.5656 15.6348 31.8617C16.1743 32.0834 16.8598 32.0834 18.2291 32.0834C19.5985 32.0834 20.2839 32.0834 20.8235 31.8617C21.5418 31.5668 22.1136 30.9987 22.4131 30.2823C22.5502 29.9571 22.6027 29.5779 22.6246 29.0238C22.6537 28.21 23.0752 27.4575 23.7854 27.0506C24.1372 26.8551 24.5327 26.7515 24.9352 26.7494C25.3378 26.7474 25.7343 26.847 26.0881 27.039C26.581 27.2986 26.9383 27.4415 27.2912 27.4881C28.0641 27.5902 28.8458 27.3817 29.4641 26.9106C29.9279 26.5577 30.2706 25.9686 30.9546 24.7917C31.64 23.6148 31.9812 23.0271 32.0585 22.4511C32.1086 22.0708 32.0829 21.6844 31.9827 21.3142C31.8826 20.944 31.7101 20.5973 31.4752 20.2942C31.2593 20.0142 30.9546 19.7794 30.4835 19.4848C29.7879 19.0517 29.3416 18.3138 29.3416 17.5C29.3416 16.6863 29.7879 15.9484 30.4821 15.5167C30.9546 15.2206 31.2593 14.9859 31.4766 14.7059C31.7113 14.4026 31.8836 14.0559 31.9834 13.6856C32.0833 13.3154 32.1088 12.9291 32.0585 12.549C31.9812 11.9744 31.64 11.3852 30.9546 10.2084C30.2691 9.03148 29.9279 8.44377 29.4641 8.08939C28.8442 7.61806 28.0633 7.41052 27.2912 7.5119C26.9383 7.55856 26.581 7.70148 26.0881 7.96106C25.7341 8.15331 25.3373 8.25304 24.9345 8.25101C24.5317 8.24897 24.1359 8.14522 23.7839 7.9494C23.4389 7.74619 23.1513 7.45837 22.9485 7.11312C22.7456 6.76787 22.6341 6.37659 22.6246 5.97627C22.6027 5.4221 22.5502 5.04294 22.4131 4.71773C22.2649 4.36297 22.0482 4.04089 21.7754 3.7699C21.5027 3.4989 21.1792 3.2843 20.8235 3.13835ZM18.2291 21.875C20.6646 21.875 22.6377 19.9165 22.6377 17.5C22.6377 15.0836 20.6631 13.125 18.2291 13.125C15.7937 13.125 13.8206 15.0836 13.8206 17.5C13.8206 19.9165 15.7952 21.875 18.2291 21.875Z" fill="#26643F"/>
</svg>
