<svg width="24" height="24" viewBox="0 0 24 24" fill="none" xmlns="http://www.w3.org/2000/svg">
<path d="M9 20V16C8.15 15.9333 7.31667 15.8417 6.5 15.725C5.68333 15.6083 4.86667 15.4583 4.05 15.275C3.76667 15.2083 3.54167 15.05 3.375 14.8C3.20833 14.55 3.16667 14.2833 3.25 14C3.33333 13.7167 3.50433 13.5083 3.763 13.375C4.02167 13.2417 4.29233 13.2083 4.575 13.275C5.79167 13.5583 7.021 13.75 8.263 13.85C9.505 13.95 10.7507 14 12 14C13.2493 14 14.4953 13.95 15.738 13.85C16.9807 13.75 18.2097 13.5583 19.425 13.275C19.725 13.2083 20 13.2417 20.25 13.375C20.5 13.5083 20.6667 13.7167 20.75 14C20.8333 14.2833 20.7877 14.55 20.613 14.8C20.4383 15.05 20.209 15.2083 19.925 15.275C19.1083 15.4583 18.2917 15.6083 17.475 15.725C16.6583 15.8417 15.8333 15.9333 15 16V20C15 20.2833 14.9043 20.521 14.713 20.713C14.5217 20.905 14.284 21.0007 14 21H10C9.71667 21 9.47933 20.904 9.288 20.712C9.09667 20.52 9.00067 20.2827 9 20ZM12 13C11.4333 13 10.9583 12.8083 10.575 12.425C10.1917 12.0417 10 11.5667 10 11C10 10.45 10.1917 9.97933 10.575 9.588C10.9583 9.19667 11.4333 9.00067 12 9C12.55 9 13.021 9.196 13.413 9.588C13.805 9.98 14.0007 10.4507 14 11C14 11.5667 13.8043 12.0417 13.413 12.425C13.0217 12.8083 12.5507 13 12 13ZM4.5 10C4.06667 10 3.70833 9.85833 3.425 9.575C3.14167 9.29167 3 8.93333 3 8.5C3 8.08333 3.14167 7.72933 3.425 7.438C3.70833 7.14667 4.06667 7.00067 4.5 7C4.91667 7 5.271 7.146 5.563 7.438C5.855 7.73 6.00067 8.084 6 8.5C6 8.93333 5.85433 9.29167 5.563 9.575C5.27167 9.85833 4.91733 10 4.5 10ZM19.5 10C19.0667 10 18.7083 9.85833 18.425 9.575C18.1417 9.29167 18 8.93333 18 8.5C18 8.08333 18.1417 7.72933 18.425 7.438C18.7083 7.14667 19.0667 7.00067 19.5 7C19.9167 7 20.271 7.146 20.563 7.438C20.855 7.73 21.0007 8.084 21 8.5C21 8.93333 20.8543 9.29167 20.563 9.575C20.2717 9.85833 19.9173 10 19.5 10ZM7.25 6.25C6.81667 6.25 6.45833 6.10833 6.175 5.825C5.89167 5.54167 5.75 5.18333 5.75 4.75C5.75 4.33333 5.89167 3.97933 6.175 3.688C6.45833 3.39667 6.81667 3.25067 7.25 3.25C7.66667 3.25 8.021 3.396 8.313 3.688C8.605 3.98 8.75067 4.334 8.75 4.75C8.75 5.18333 8.60433 5.54167 8.313 5.825C8.02167 6.10833 7.66733 6.25 7.25 6.25ZM16.75 6.25C16.3167 6.25 15.9583 6.10833 15.675 5.825C15.3917 5.54167 15.25 5.18333 15.25 4.75C15.25 4.33333 15.3917 3.97933 15.675 3.688C15.9583 3.39667 16.3167 3.25067 16.75 3.25C17.1667 3.25 17.521 3.396 17.813 3.688C18.105 3.98 18.2507 4.334 18.25 4.75C18.25 5.18333 18.1043 5.54167 17.813 5.825C17.5217 6.10833 17.1673 6.25 16.75 6.25ZM12 5C11.5667 5 11.2083 4.85833 10.925 4.575C10.6417 4.29167 10.5 3.93333 10.5 3.5C10.5 3.08333 10.6417 2.72933 10.925 2.438C11.2083 2.14667 11.5667 2.00067 12 2C12.4167 2 12.771 2.146 13.063 2.438C13.355 2.73 13.5007 3.084 13.5 3.5C13.5 3.93333 13.3543 4.29167 13.063 4.575C12.7717 4.85833 12.4173 5 12 5Z" fill="black"/>
</svg>
