<svg width="22" height="23" viewBox="0 0 22 23" fill="none" xmlns="http://www.w3.org/2000/svg">
<path fill-rule="evenodd" clip-rule="evenodd" d="M2.5 8.90363C2.5 11.9412 4.96243 14.4036 8 14.4036C11.0376 14.4036 13.5 11.9412 13.5 8.90363C13.5 5.86606 11.0376 3.40363 8 3.40363C4.96243 3.40363 2.5 5.86606 2.5 8.90363ZM8 0.903625C3.58172 0.903625 0 4.48535 0 8.90363C0 13.3219 3.58172 16.9036 8 16.9036C12.4183 16.9036 16 13.3219 16 8.90363C16 4.48535 12.4183 0.903625 8 0.903625Z" fill="#1E1E1E"/>
<path d="M12.1213 13.1473C12.7406 12.4604 13.7994 12.4056 14.4863 13.0249L21.3111 19.1782C21.9979 19.7975 22.0527 20.8563 21.4334 21.5432C20.8142 22.23 19.7553 22.2848 19.0685 21.6655L12.2437 15.5123C11.5568 14.893 11.502 13.8342 12.1213 13.1473Z" fill="#1E1E1E"/>
</svg>
