<svg width="20" height="20" viewBox="0 0 20 20" fill="none" xmlns="http://www.w3.org/2000/svg">
<path fill-rule="evenodd" clip-rule="evenodd" d="M12.2989 3.33337H15.7142C16.2193 3.33337 16.7038 3.53405 17.061 3.89127C17.4183 4.24848 17.6189 4.73296 17.6189 5.23814V8.65337C17.6189 8.90594 17.5185 9.14814 17.3399 9.32671L10.8704 15.7962C10.5132 16.1533 10.0288 16.3539 9.5237 16.3539C9.01862 16.3539 8.53422 16.1533 8.17703 15.7962L5.15608 12.7753C4.79899 12.4181 4.59839 11.9337 4.59839 11.4286C4.59839 10.9235 4.79899 10.4391 5.15608 10.0819L11.6256 3.61242C11.8042 3.4338 12.0464 3.33343 12.2989 3.33337Z" stroke="black" stroke-linecap="round" stroke-linejoin="round"/>
<path d="M8.09519 15.7143L6.17805 16.6724C5.93932 16.7918 5.67816 16.8597 5.41151 16.8717C5.14485 16.8836 4.87866 16.8394 4.6302 16.7419C4.38173 16.6444 4.15653 16.4957 3.9692 16.3056C3.78188 16.1155 3.63661 15.8881 3.54281 15.6382L2.00472 11.5372C1.84458 11.11 1.84312 10.6395 2.0006 10.2112C2.15808 9.78302 2.46404 9.42556 2.86281 9.20387L9.99996 5.23816" stroke="black" stroke-linecap="round" stroke-linejoin="round"/>
<path d="M16.1904 5.71434C16.1904 5.18836 15.764 4.76196 15.238 4.76196C14.712 4.76196 14.2856 5.18836 14.2856 5.71434C14.2856 6.24033 14.712 6.66672 15.238 6.66672C15.764 6.66672 16.1904 6.24033 16.1904 5.71434Z" fill="black"/>
</svg>
