<svg width="20" height="20" viewBox="0 0 20 20" fill="none" xmlns="http://www.w3.org/2000/svg">
<path d="M11.0774 3.3C11.4455 2.92599 11.8841 2.62856 12.3677 2.42486C12.8513 2.22115 13.3705 2.1152 13.8952 2.11311C14.42 2.11103 14.94 2.21285 15.4252 2.41271C15.9104 2.61257 16.3513 2.90651 16.7224 3.27758C17.0934 3.64865 17.3874 4.08951 17.5872 4.57473C17.7871 5.05995 17.8889 5.57994 17.8868 6.10471C17.8847 6.62948 17.7788 7.14864 17.5751 7.63226C17.3714 8.11588 17.0739 8.55439 16.6999 8.9225L14.1749 11.4475L12.9958 10.27L15.5208 7.74417C15.954 7.3112 16.1974 6.72389 16.1976 6.11142C16.1977 5.49896 15.9546 4.91152 15.5216 4.47833C15.0886 4.04515 14.5013 3.8017 13.8889 3.80154C13.2764 3.80138 12.689 4.04453 12.2558 4.4775L9.72993 7.00333L8.5516 5.825L11.0774 3.3ZM12.8441 8.33333L8.3316 12.845L7.15327 11.6667L11.6649 7.155L12.8441 8.33333ZM7.00243 9.73L4.47743 12.2558C4.04425 12.689 3.80089 13.2765 3.80089 13.8892C3.80089 14.5018 4.04425 15.0893 4.47743 15.5225C4.91062 15.9557 5.49815 16.199 6.11077 16.199C6.72339 16.199 7.31091 15.9557 7.7441 15.5225L10.2691 12.9967L11.4474 14.175L8.92243 16.7C8.17684 17.4457 7.16556 17.8647 6.11106 17.8648C5.05656 17.8648 4.04522 17.446 3.29952 16.7004C2.55382 15.9548 2.13484 14.9435 2.13477 13.889C2.13469 12.8345 2.55351 11.8232 3.2991 11.0775L5.8241 8.5525L7.00243 9.73Z" fill="black"/>
</svg>
